<svg id="mermaid-1610536959829" width="100%" xmlns="http://www.w3.org/2000/svg" height="100%" style="max-width:1480px;" viewBox="-50 -10 1480 1912"><style>#mermaid-1610536959829{font-family:"trebuchet ms",verdana,arial;font-size:16px;fill:#333;}#mermaid-1610536959829 .error-icon{fill:#552222;}#mermaid-1610536959829 .error-text{fill:#552222;stroke:#552222;}#mermaid-1610536959829 .edge-thickness-normal{stroke-width:2px;}#mermaid-1610536959829 .edge-thickness-thick{stroke-width:3.5px;}#mermaid-1610536959829 .edge-pattern-solid{stroke-dasharray:0;}#mermaid-1610536959829 .edge-pattern-dashed{stroke-dasharray:3;}#mermaid-1610536959829 .edge-pattern-dotted{stroke-dasharray:2;}#mermaid-1610536959829 .marker{fill:#333333;}#mermaid-1610536959829 .marker.cross{stroke:#333333;}#mermaid-1610536959829 svg{font-family:"trebuchet ms",verdana,arial;font-size:16px;}#mermaid-1610536959829 .actor{stroke:hsl(259.6261682243,59.7765363128%,87.9019607843%);fill:#ECECFF;}#mermaid-1610536959829 text.actor &gt; tspan{fill:black;stroke:none;}#mermaid-1610536959829 .actor-line{stroke:grey;}#mermaid-1610536959829 .messageLine0{stroke-width:1.5;stroke-dasharray:none;stroke:#333;}#mermaid-1610536959829 .messageLine1{stroke-width:1.5;stroke-dasharray:2,2;stroke:#333;}#mermaid-1610536959829 #arrowhead path{fill:#333;stroke:#333;}#mermaid-1610536959829 .sequenceNumber{fill:white;}#mermaid-1610536959829 #sequencenumber{fill:#333;}#mermaid-1610536959829 #crosshead path{fill:#333;stroke:#333;}#mermaid-1610536959829 .messageText{fill:#333;stroke:#333;}#mermaid-1610536959829 .labelBox{stroke:hsl(259.6261682243,59.7765363128%,87.9019607843%);fill:#ECECFF;}#mermaid-1610536959829 .labelText,#mermaid-1610536959829 .labelText &gt; tspan{fill:black;stroke:none;}#mermaid-1610536959829 .loopText,#mermaid-1610536959829 .loopText &gt; tspan{fill:black;stroke:none;}#mermaid-1610536959829 .loopLine{stroke-width:2px;stroke-dasharray:2,2;stroke:hsl(259.6261682243,59.7765363128%,87.9019607843%);fill:hsl(259.6261682243,59.7765363128%,87.9019607843%);}#mermaid-1610536959829 .note{stroke:#aaaa33;fill:#fff5ad;}#mermaid-1610536959829 .noteText,#mermaid-1610536959829 .noteText &gt; tspan{fill:black;stroke:none;}#mermaid-1610536959829 .activation0{fill:#f4f4f4;stroke:#666;}#mermaid-1610536959829 .activation1{fill:#f4f4f4;stroke:#666;}#mermaid-1610536959829 .activation2{fill:#f4f4f4;stroke:#666;}#mermaid-1610536959829:root{--mermaid-font-family:"trebuchet ms",verdana,arial;}#mermaid-1610536959829 sequence{fill:apa;}</style><g/><g><line id="actor320" x1="75" y1="5" x2="75" y2="1901" class="actor-line" stroke-width="0.5px" stroke="#999"/><rect x="0" y="0" fill="#eaeaea" stroke="#666" width="150" height="65" rx="3" ry="3" class="actor"/><text x="75" y="32.5" dominant-baseline="central" alignment-baseline="central" class="actor" style="text-anchor: middle; font-size: 14px; font-weight: 400; font-family: Open-Sans, sans-serif;"><tspan x="75" dy="0">Program</tspan></text></g><g><line id="actor321" x1="275" y1="5" x2="275" y2="1901" class="actor-line" stroke-width="0.5px" stroke="#999"/><rect x="200" y="0" fill="#eaeaea" stroke="#666" width="150" height="65" rx="3" ry="3" class="actor"/><text x="275" y="32.5" dominant-baseline="central" alignment-baseline="central" class="actor" style="text-anchor: middle; font-size: 14px; font-weight: 400; font-family: Open-Sans, sans-serif;"><tspan x="275" dy="0">SettingsMenu</tspan></text></g><g><line id="actor322" x1="475" y1="5" x2="475" y2="1901" class="actor-line" stroke-width="0.5px" stroke="#999"/><rect x="400" y="0" fill="#eaeaea" stroke="#666" width="150" height="65" rx="3" ry="3" class="actor"/><text x="475" y="32.5" dominant-baseline="central" alignment-baseline="central" class="actor" style="text-anchor: middle; font-size: 14px; font-weight: 400; font-family: Open-Sans, sans-serif;"><tspan x="475" dy="0">InputFileSettings</tspan></text></g><g><line id="actor323" x1="675" y1="5" x2="675" y2="1901" class="actor-line" stroke-width="0.5px" stroke="#999"/><rect x="600" y="0" fill="#eaeaea" stroke="#666" width="150" height="65" rx="3" ry="3" class="actor"/><text x="675" y="32.5" dominant-baseline="central" alignment-baseline="central" class="actor" style="text-anchor: middle; font-size: 14px; font-weight: 400; font-family: Open-Sans, sans-serif;"><tspan x="675" dy="0">GroupSettings</tspan></text></g><g><line id="actor324" x1="905" y1="5" x2="905" y2="1901" class="actor-line" stroke-width="0.5px" stroke="#999"/><rect x="830" y="0" fill="#eaeaea" stroke="#666" width="150" height="65" rx="3" ry="3" class="actor"/><text x="905" y="32.5" dominant-baseline="central" alignment-baseline="central" class="actor" style="text-anchor: middle; font-size: 14px; font-weight: 400; font-family: Open-Sans, sans-serif;"><tspan x="905" dy="0">GroupManager</tspan></text></g><g><line id="actor325" x1="1105" y1="5" x2="1105" y2="1901" class="actor-line" stroke-width="0.5px" stroke="#999"/><rect x="1030" y="0" fill="#eaeaea" stroke="#666" width="150" height="65" rx="3" ry="3" class="actor"/><text x="1105" y="32.5" dominant-baseline="central" alignment-baseline="central" class="actor" style="text-anchor: middle; font-size: 14px; font-weight: 400; font-family: Open-Sans, sans-serif;"><tspan x="1105" dy="0">InputFileManager</tspan></text></g><g><line id="actor326" x1="1305" y1="5" x2="1305" y2="1901" class="actor-line" stroke-width="0.5px" stroke="#999"/><rect x="1230" y="0" fill="#eaeaea" stroke="#666" width="150" height="65" rx="3" ry="3" class="actor"/><text x="1305" y="32.5" dominant-baseline="central" alignment-baseline="central" class="actor" style="text-anchor: middle; font-size: 14px; font-weight: 400; font-family: Open-Sans, sans-serif;"><tspan x="1305" dy="0">DriverlessInputFile</tspan></text></g><defs><marker id="arrowhead" refX="5" refY="2" markerWidth="6" markerHeight="4" orient="auto"><path d="M 0,0 V 4 L6,2 Z"/></marker></defs><defs><marker id="crosshead" markerWidth="15" markerHeight="8" orient="auto" refX="16" refY="4"><path fill="black" stroke="#000000" stroke-width="1px" d="M 9,2 V 6 L16,4 Z" style="stroke-dasharray: 0, 0;"/><path fill="none" stroke="#000000" stroke-width="1px" d="M 0,1 L 6,7 M 6,1 L 0,7" style="stroke-dasharray: 0, 0;"/></marker></defs><defs><marker id="sequencenumber" refX="15" refY="15" markerWidth="60" markerHeight="40" orient="auto"><circle cx="15" cy="15" r="6"/></marker></defs><text x="175" y="80" text-anchor="middle" dominant-baseline="middle" alignment-baseline="middle" class="messageText" dy="1em" style="font-family: &quot;trebuchet ms&quot;, verdana, arial; font-size: 16px; font-weight: 400;">Create new</text><line x1="75" y1="113" x2="275" y2="113" class="messageLine0" stroke-width="2" stroke="none" marker-end="url(#arrowhead)" style="fill: none;"/><g><rect x="270" y="113" fill="#EDF2AE" stroke="#666" width="10" height="1703" rx="0" ry="0" class="activation0"/></g><text x="280" y="128" text-anchor="middle" dominant-baseline="middle" alignment-baseline="middle" class="messageText" dy="1em" style="font-family: &quot;trebuchet ms&quot;, verdana, arial; font-size: 16px; font-weight: 400;">Initialize settings tabs</text><path d="M 280,161 C 340,151 340,191 280,181" class="messageLine0" stroke-width="2" stroke="none" marker-end="url(#arrowhead)" style="fill: none;"/><g><rect x="275" y="193" fill="#EDF2AE" stroke="#666" width="10" height="1623" rx="0" ry="0" class="activation1"/></g><text x="285" y="206" text-anchor="middle" dominant-baseline="middle" alignment-baseline="middle" class="messageText" dy="1em" style="font-family: &quot;trebuchet ms&quot;, verdana, arial; font-size: 16px; font-weight: 400;">Add input file settings tab</text><path d="M 285,239 C 345,229 345,269 285,259" class="messageLine0" stroke-width="2" stroke="none" marker-end="url(#arrowhead)" style="fill: none;"/><g><rect x="280" y="271" fill="#EDF2AE" stroke="#666" width="10" height="94" rx="0" ry="0" class="activation2"/></g><text x="383" y="284" text-anchor="middle" dominant-baseline="middle" alignment-baseline="middle" class="messageText" dy="1em" style="font-family: &quot;trebuchet ms&quot;, verdana, arial; font-size: 16px; font-weight: 400;">Create new</text><line x1="290" y1="317" x2="475" y2="317" class="messageLine0" stroke-width="2" stroke="none" marker-end="url(#arrowhead)" style="fill: none;"/><g><rect x="470" y="319" fill="#EDF2AE" stroke="#666" width="10" height="46" rx="0" ry="0" class="activation0"/></g><text x="380" y="332" text-anchor="middle" dominant-baseline="middle" alignment-baseline="middle" class="messageText" dy="1em" style="font-family: &quot;trebuchet ms&quot;, verdana, arial; font-size: 16px; font-weight: 400;">Return new</text><line x1="470" y1="365" x2="290" y2="365" class="messageLine1" stroke-width="2" stroke="none" marker-end="url(#arrowhead)" style="stroke-dasharray: 3, 3; fill: none;"/><text x="285" y="380" text-anchor="middle" dominant-baseline="middle" alignment-baseline="middle" class="messageText" dy="1em" style="font-family: &quot;trebuchet ms&quot;, verdana, arial; font-size: 16px; font-weight: 400;">Add group settings tab</text><path d="M 285,413 C 345,403 345,443 285,433" class="messageLine0" stroke-width="2" stroke="none" marker-end="url(#arrowhead)" style="fill: none;"/><g><rect x="280" y="445" fill="#EDF2AE" stroke="#666" width="10" height="1371" rx="0" ry="0" class="activation2"/></g><text x="483" y="458" text-anchor="middle" dominant-baseline="middle" alignment-baseline="middle" class="messageText" dy="1em" style="font-family: &quot;trebuchet ms&quot;, verdana, arial; font-size: 16px; font-weight: 400;">Create new</text><line x1="290" y1="491" x2="675" y2="491" class="messageLine0" stroke-width="2" stroke="none" marker-end="url(#arrowhead)" style="fill: none;"/><g><rect x="670" y="493" fill="#EDF2AE" stroke="#666" width="10" height="1323" rx="0" ry="0" class="activation0"/></g><text x="793" y="506" text-anchor="middle" dominant-baseline="middle" alignment-baseline="middle" class="messageText" dy="1em" style="font-family: &quot;trebuchet ms&quot;, verdana, arial; font-size: 16px; font-weight: 400;">Get groups count</text><line x1="680" y1="539" x2="905" y2="539" class="messageLine0" stroke-width="2" stroke="none" marker-end="url(#arrowhead)" style="fill: none;"/><g><rect x="900" y="541" fill="#EDF2AE" stroke="#666" width="10" height="46" rx="0" ry="0" class="activation0"/></g><text x="790" y="554" text-anchor="middle" dominant-baseline="middle" alignment-baseline="middle" class="messageText" dy="1em" style="font-family: &quot;trebuchet ms&quot;, verdana, arial; font-size: 16px; font-weight: 400;">Return groups count</text><line x1="900" y1="587" x2="680" y2="587" class="messageLine1" stroke-width="2" stroke="none" marker-end="url(#arrowhead)" style="stroke-dasharray: 3, 3; fill: none;"/><text x="793" y="692" text-anchor="middle" dominant-baseline="middle" alignment-baseline="middle" class="messageText" dy="1em" style="font-family: &quot;trebuchet ms&quot;, verdana, arial; font-size: 16px; font-weight: 400;">Get groups</text><line x1="680" y1="725" x2="905" y2="725" class="messageLine0" stroke-width="2" stroke="none" marker-end="url(#arrowhead)" style="fill: none;"/><g><rect x="900" y="727" fill="#EDF2AE" stroke="#666" width="10" height="46" rx="0" ry="0" class="activation0"/></g><text x="790" y="740" text-anchor="middle" dominant-baseline="middle" alignment-baseline="middle" class="messageText" dy="1em" style="font-family: &quot;trebuchet ms&quot;, verdana, arial; font-size: 16px; font-weight: 400;">Return groups</text><line x1="900" y1="773" x2="680" y2="773" class="messageLine1" stroke-width="2" stroke="none" marker-end="url(#arrowhead)" style="stroke-dasharray: 3, 3; fill: none;"/><g><rect x="532" y="783" fill="#EDF2AE" stroke="#666" width="286" height="37" rx="0" ry="0" class="note"/><text x="675" y="788" text-anchor="middle" dominant-baseline="middle" alignment-baseline="middle" class="noteText" dy="1em" style="font-family: &quot;trebuchet ms&quot;, verdana, arial; font-size: 14px; font-weight: 400;"><tspan x="675">Set active group name to first group name</tspan></text></g><g><line x1="522" y1="642" x2="920" y2="642" class="loopLine"/><line x1="920" y1="642" x2="920" y2="830" class="loopLine"/><line x1="522" y1="830" x2="920" y2="830" class="loopLine"/><line x1="522" y1="642" x2="522" y2="830" class="loopLine"/><polygon points="522,642 572,642 572,655 563.6,662 522,662" class="labelBox"/><text x="547" y="655" text-anchor="middle" dominant-baseline="middle" alignment-baseline="middle" class="labelText" style="font-family: &quot;trebuchet ms&quot;, verdana, arial; font-size: 16px; font-weight: 400;">opt</text><text x="746" y="660" text-anchor="middle" class="loopText" style="font-family: &quot;trebuchet ms&quot;, verdana, arial; font-size: 16px; font-weight: 400;"><tspan x="746">[active group name is empty]</tspan></text></g><text x="793" y="845" text-anchor="middle" dominant-baseline="middle" alignment-baseline="middle" class="messageText" dy="1em" style="font-family: &quot;trebuchet ms&quot;, verdana, arial; font-size: 16px; font-weight: 400;">Get active group</text><line x1="680" y1="878" x2="905" y2="878" class="messageLine0" stroke-width="2" stroke="none" marker-end="url(#arrowhead)" style="fill: none;"/><g><rect x="900" y="880" fill="#EDF2AE" stroke="#666" width="10" height="46" rx="0" ry="0" class="activation0"/></g><text x="790" y="893" text-anchor="middle" dominant-baseline="middle" alignment-baseline="middle" class="messageText" dy="1em" style="font-family: &quot;trebuchet ms&quot;, verdana, arial; font-size: 16px; font-weight: 400;">Return active group</text><line x1="900" y1="926" x2="680" y2="926" class="messageLine1" stroke-width="2" stroke="none" marker-end="url(#arrowhead)" style="stroke-dasharray: 3, 3; fill: none;"/><text x="680" y="986" text-anchor="middle" dominant-baseline="middle" alignment-baseline="middle" class="messageText" dy="1em" style="font-family: &quot;trebuchet ms&quot;, verdana, arial; font-size: 16px; font-weight: 400;">destroy all active channel selectable attributes</text><path d="M 680,1019 C 740,1009 740,1049 680,1039" class="messageLine0" stroke-width="2" stroke="none" marker-end="url(#arrowhead)" style="fill: none;"/><g><rect x="675" y="1043" fill="#EDF2AE" stroke="#666" width="10" height="18" rx="0" ry="0" class="activation1"/></g><g><line x1="500" y1="936" x2="860" y2="936" class="loopLine"/><line x1="860" y1="936" x2="860" y2="1089" class="loopLine"/><line x1="500" y1="1089" x2="860" y2="1089" class="loopLine"/><line x1="500" y1="936" x2="500" y2="1089" class="loopLine"/><polygon points="500,936 550,936 550,949 541.6,956 500,956" class="labelBox"/><text x="525" y="949" text-anchor="middle" dominant-baseline="middle" alignment-baseline="middle" class="labelText" style="font-family: &quot;trebuchet ms&quot;, verdana, arial; font-size: 16px; font-weight: 400;">opt</text><text x="705" y="954" text-anchor="middle" class="loopText" style="font-family: &quot;trebuchet ms&quot;, verdana, arial; font-size: 16px; font-weight: 400;"><tspan x="705">[active group is driverless]</tspan></text></g><text x="680" y="1104" text-anchor="middle" dominant-baseline="middle" alignment-baseline="middle" class="messageText" dy="1em" style="font-family: &quot;trebuchet ms&quot;, verdana, arial; font-size: 16px; font-weight: 400;">Initialize active channel selectable attributes</text><path d="M 680,1137 C 740,1127 740,1167 680,1157" class="messageLine0" stroke-width="2" stroke="none" marker-end="url(#arrowhead)" style="fill: none;"/><g><rect x="675" y="1169" fill="#EDF2AE" stroke="#666" width="10" height="589" rx="0" ry="0" class="activation1"/></g><text x="795" y="1182" text-anchor="middle" dominant-baseline="middle" alignment-baseline="middle" class="messageText" dy="1em" style="font-family: &quot;trebuchet ms&quot;, verdana, arial; font-size: 16px; font-weight: 400;">Get active group</text><line x1="685" y1="1215" x2="905" y2="1215" class="messageLine0" stroke-width="2" stroke="none" marker-end="url(#arrowhead)" style="fill: none;"/><g><rect x="900" y="1217" fill="#EDF2AE" stroke="#666" width="10" height="46" rx="0" ry="0" class="activation0"/></g><text x="793" y="1230" text-anchor="middle" dominant-baseline="middle" alignment-baseline="middle" class="messageText" dy="1em" style="font-family: &quot;trebuchet ms&quot;, verdana, arial; font-size: 16px; font-weight: 400;">Return active group</text><line x1="900" y1="1263" x2="685" y2="1263" class="messageLine1" stroke-width="2" stroke="none" marker-end="url(#arrowhead)" style="stroke-dasharray: 3, 3; fill: none;"/><text x="895" y="1323" text-anchor="middle" dominant-baseline="middle" alignment-baseline="middle" class="messageText" dy="1em" style="font-family: &quot;trebuchet ms&quot;, verdana, arial; font-size: 16px; font-weight: 400;">Get selected driverless input file</text><line x1="685" y1="1356" x2="1105" y2="1356" class="messageLine0" stroke-width="2" stroke="none" marker-end="url(#arrowhead)" style="fill: none;"/><g><rect x="1100" y="1358" fill="#EDF2AE" stroke="#666" width="10" height="46" rx="0" ry="0" class="activation0"/></g><text x="893" y="1371" text-anchor="middle" dominant-baseline="middle" alignment-baseline="middle" class="messageText" dy="1em" style="font-family: &quot;trebuchet ms&quot;, verdana, arial; font-size: 16px; font-weight: 400;">Return selected driverless input file</text><line x1="1100" y1="1404" x2="685" y2="1404" class="messageLine1" stroke-width="2" stroke="none" marker-end="url(#arrowhead)" style="stroke-dasharray: 3, 3; fill: none;"/><text x="995" y="1464" text-anchor="middle" dominant-baseline="middle" alignment-baseline="middle" class="messageText" dy="1em" style="font-family: &quot;trebuchet ms&quot;, verdana, arial; font-size: 16px; font-weight: 400;">Get channels</text><line x1="685" y1="1497" x2="1305" y2="1497" class="messageLine0" stroke-width="2" stroke="none" marker-end="url(#arrowhead)" style="fill: none;"/><g><rect x="1300" y="1499" fill="#EDF2AE" stroke="#666" width="10" height="46" rx="0" ry="0" class="activation0"/></g><text x="993" y="1512" text-anchor="middle" dominant-baseline="middle" alignment-baseline="middle" class="messageText" dy="1em" style="font-family: &quot;trebuchet ms&quot;, verdana, arial; font-size: 16px; font-weight: 400;">Return channels</text><line x1="1300" y1="1545" x2="685" y2="1545" class="messageLine1" stroke-width="2" stroke="none" marker-end="url(#arrowhead)" style="stroke-dasharray: 3, 3; fill: none;"/><g><rect x="600" y="1681" fill="#EDF2AE" stroke="#666" width="150" height="37" rx="0" ry="0" class="note"/><text x="675" y="1686" text-anchor="middle" dominant-baseline="middle" alignment-baseline="middle" class="noteText" dy="1em" style="font-family: &quot;trebuchet ms&quot;, verdana, arial; font-size: 14px; font-weight: 400;"><tspan x="675">Create check box</tspan></text></g><g><line x1="590" y1="1618" x2="760" y2="1618" class="loopLine"/><line x1="760" y1="1618" x2="760" y2="1728" class="loopLine"/><line x1="590" y1="1728" x2="760" y2="1728" class="loopLine"/><line x1="590" y1="1618" x2="590" y2="1728" class="loopLine"/><polygon points="590,1618 640,1618 640,1631 631.6,1638 590,1638" class="labelBox"/><text x="615" y="1631" text-anchor="middle" dominant-baseline="middle" alignment-baseline="middle" class="labelText" style="font-family: &quot;trebuchet ms&quot;, verdana, arial; font-size: 16px; font-weight: 400;">loop</text><text x="700" y="1636" text-anchor="middle" class="loopText" style="font-family: &quot;trebuchet ms&quot;, verdana, arial; font-size: 16px; font-weight: 400;"><tspan x="700">[in</tspan></text><text x="700" y="1654" text-anchor="middle" class="loopText" style="font-family: &quot;trebuchet ms&quot;, verdana, arial; font-size: 16px; font-weight: 400;"><tspan x="700">channels]</tspan></text></g><g><line x1="580" y1="1555" x2="770" y2="1555" class="loopLine"/><line x1="770" y1="1555" x2="770" y2="1738" class="loopLine"/><line x1="580" y1="1738" x2="770" y2="1738" class="loopLine"/><line x1="580" y1="1555" x2="580" y2="1738" class="loopLine"/><polygon points="580,1555 630,1555 630,1568 621.6,1575 580,1575" class="labelBox"/><text x="605" y="1568" text-anchor="middle" dominant-baseline="middle" alignment-baseline="middle" class="labelText" style="font-family: &quot;trebuchet ms&quot;, verdana, arial; font-size: 16px; font-weight: 400;">opt</text><text x="700" y="1573" text-anchor="middle" class="loopText" style="font-family: &quot;trebuchet ms&quot;, verdana, arial; font-size: 16px; font-weight: 400;"><tspan x="700">[channel is</tspan></text><text x="700" y="1591" text-anchor="middle" class="loopText" style="font-family: &quot;trebuchet ms&quot;, verdana, arial; font-size: 16px; font-weight: 400;"><tspan x="700">not null]</tspan></text></g><g><line x1="570" y1="1414" x2="1320" y2="1414" class="loopLine"/><line x1="1320" y1="1414" x2="1320" y2="1748" class="loopLine"/><line x1="570" y1="1748" x2="1320" y2="1748" class="loopLine"/><line x1="570" y1="1414" x2="570" y2="1748" class="loopLine"/><polygon points="570,1414 620,1414 620,1427 611.6,1434 570,1434" class="labelBox"/><text x="595" y="1427" text-anchor="middle" dominant-baseline="middle" alignment-baseline="middle" class="labelText" style="font-family: &quot;trebuchet ms&quot;, verdana, arial; font-size: 16px; font-weight: 400;">opt</text><text x="970" y="1432" text-anchor="middle" class="loopText" style="font-family: &quot;trebuchet ms&quot;, verdana, arial; font-size: 16px; font-weight: 400;"><tspan x="970">[selected driverless input file is not null]</tspan></text></g><g><line x1="560" y1="1273" x2="1330" y2="1273" class="loopLine"/><line x1="1330" y1="1273" x2="1330" y2="1758" class="loopLine"/><line x1="560" y1="1758" x2="1330" y2="1758" class="loopLine"/><line x1="560" y1="1273" x2="560" y2="1758" class="loopLine"/><polygon points="560,1273 610,1273 610,1286 601.6,1293 560,1293" class="labelBox"/><text x="585" y="1286" text-anchor="middle" dominant-baseline="middle" alignment-baseline="middle" class="labelText" style="font-family: &quot;trebuchet ms&quot;, verdana, arial; font-size: 16px; font-weight: 400;">opt</text><text x="970" y="1291" text-anchor="middle" class="loopText" style="font-family: &quot;trebuchet ms&quot;, verdana, arial; font-size: 16px; font-weight: 400;"><tspan x="970">[active group is driverless]</tspan></text></g><g><line x1="490" y1="597" x2="1340" y2="597" class="loopLine"/><line x1="1340" y1="597" x2="1340" y2="1768" class="loopLine"/><line x1="490" y1="1768" x2="1340" y2="1768" class="loopLine"/><line x1="490" y1="597" x2="490" y2="1768" class="loopLine"/><polygon points="490,597 540,597 540,610 531.6,617 490,617" class="labelBox"/><text x="515" y="610" text-anchor="middle" dominant-baseline="middle" alignment-baseline="middle" class="labelText" style="font-family: &quot;trebuchet ms&quot;, verdana, arial; font-size: 16px; font-weight: 400;">opt</text><text x="940" y="615" text-anchor="middle" class="loopText" style="font-family: &quot;trebuchet ms&quot;, verdana, arial; font-size: 16px; font-weight: 400;"><tspan x="940">[groups has items]</tspan></text></g><text x="480" y="1783" text-anchor="middle" dominant-baseline="middle" alignment-baseline="middle" class="messageText" dy="1em" style="font-family: &quot;trebuchet ms&quot;, verdana, arial; font-size: 16px; font-weight: 400;">Return new</text><line x1="670" y1="1816" x2="290" y2="1816" class="messageLine1" stroke-width="2" stroke="none" marker-end="url(#arrowhead)" style="stroke-dasharray: 3, 3; fill: none;"/><g><rect x="70" y="1810" fill="#EDF2AE" stroke="#666" width="10" height="18" rx="0" ry="0" class="activation0"/></g><g><rect x="0" y="1836" fill="#eaeaea" stroke="#666" width="150" height="65" rx="3" ry="3" class="actor"/><text x="75" y="1868.5" dominant-baseline="central" alignment-baseline="central" class="actor" style="text-anchor: middle; font-size: 14px; font-weight: 400; font-family: Open-Sans, sans-serif;"><tspan x="75" dy="0">Program</tspan></text></g><g><rect x="200" y="1836" fill="#eaeaea" stroke="#666" width="150" height="65" rx="3" ry="3" class="actor"/><text x="275" y="1868.5" dominant-baseline="central" alignment-baseline="central" class="actor" style="text-anchor: middle; font-size: 14px; font-weight: 400; font-family: Open-Sans, sans-serif;"><tspan x="275" dy="0">SettingsMenu</tspan></text></g><g><rect x="400" y="1836" fill="#eaeaea" stroke="#666" width="150" height="65" rx="3" ry="3" class="actor"/><text x="475" y="1868.5" dominant-baseline="central" alignment-baseline="central" class="actor" style="text-anchor: middle; font-size: 14px; font-weight: 400; font-family: Open-Sans, sans-serif;"><tspan x="475" dy="0">InputFileSettings</tspan></text></g><g><rect x="600" y="1836" fill="#eaeaea" stroke="#666" width="150" height="65" rx="3" ry="3" class="actor"/><text x="675" y="1868.5" dominant-baseline="central" alignment-baseline="central" class="actor" style="text-anchor: middle; font-size: 14px; font-weight: 400; font-family: Open-Sans, sans-serif;"><tspan x="675" dy="0">GroupSettings</tspan></text></g><g><rect x="830" y="1836" fill="#eaeaea" stroke="#666" width="150" height="65" rx="3" ry="3" class="actor"/><text x="905" y="1868.5" dominant-baseline="central" alignment-baseline="central" class="actor" style="text-anchor: middle; font-size: 14px; font-weight: 400; font-family: Open-Sans, sans-serif;"><tspan x="905" dy="0">GroupManager</tspan></text></g><g><rect x="1030" y="1836" fill="#eaeaea" stroke="#666" width="150" height="65" rx="3" ry="3" class="actor"/><text x="1105" y="1868.5" dominant-baseline="central" alignment-baseline="central" class="actor" style="text-anchor: middle; font-size: 14px; font-weight: 400; font-family: Open-Sans, sans-serif;"><tspan x="1105" dy="0">InputFileManager</tspan></text></g><g><rect x="1230" y="1836" fill="#eaeaea" stroke="#666" width="150" height="65" rx="3" ry="3" class="actor"/><text x="1305" y="1868.5" dominant-baseline="central" alignment-baseline="central" class="actor" style="text-anchor: middle; font-size: 14px; font-weight: 400; font-family: Open-Sans, sans-serif;"><tspan x="1305" dy="0">DriverlessInputFile</tspan></text></g></svg>