<svg id="mermaid-1610536629484" width="100%" xmlns="http://www.w3.org/2000/svg" height="100%" style="max-width:1080px;" viewBox="-50 -10 1080 1486"><style>#mermaid-1610536629484{font-family:"trebuchet ms",verdana,arial;font-size:16px;fill:#333;}#mermaid-1610536629484 .error-icon{fill:#552222;}#mermaid-1610536629484 .error-text{fill:#552222;stroke:#552222;}#mermaid-1610536629484 .edge-thickness-normal{stroke-width:2px;}#mermaid-1610536629484 .edge-thickness-thick{stroke-width:3.5px;}#mermaid-1610536629484 .edge-pattern-solid{stroke-dasharray:0;}#mermaid-1610536629484 .edge-pattern-dashed{stroke-dasharray:3;}#mermaid-1610536629484 .edge-pattern-dotted{stroke-dasharray:2;}#mermaid-1610536629484 .marker{fill:#333333;}#mermaid-1610536629484 .marker.cross{stroke:#333333;}#mermaid-1610536629484 svg{font-family:"trebuchet ms",verdana,arial;font-size:16px;}#mermaid-1610536629484 .actor{stroke:hsl(259.6261682243,59.7765363128%,87.9019607843%);fill:#ECECFF;}#mermaid-1610536629484 text.actor &gt; tspan{fill:black;stroke:none;}#mermaid-1610536629484 .actor-line{stroke:grey;}#mermaid-1610536629484 .messageLine0{stroke-width:1.5;stroke-dasharray:none;stroke:#333;}#mermaid-1610536629484 .messageLine1{stroke-width:1.5;stroke-dasharray:2,2;stroke:#333;}#mermaid-1610536629484 #arrowhead path{fill:#333;stroke:#333;}#mermaid-1610536629484 .sequenceNumber{fill:white;}#mermaid-1610536629484 #sequencenumber{fill:#333;}#mermaid-1610536629484 #crosshead path{fill:#333;stroke:#333;}#mermaid-1610536629484 .messageText{fill:#333;stroke:#333;}#mermaid-1610536629484 .labelBox{stroke:hsl(259.6261682243,59.7765363128%,87.9019607843%);fill:#ECECFF;}#mermaid-1610536629484 .labelText,#mermaid-1610536629484 .labelText &gt; tspan{fill:black;stroke:none;}#mermaid-1610536629484 .loopText,#mermaid-1610536629484 .loopText &gt; tspan{fill:black;stroke:none;}#mermaid-1610536629484 .loopLine{stroke-width:2px;stroke-dasharray:2,2;stroke:hsl(259.6261682243,59.7765363128%,87.9019607843%);fill:hsl(259.6261682243,59.7765363128%,87.9019607843%);}#mermaid-1610536629484 .note{stroke:#aaaa33;fill:#fff5ad;}#mermaid-1610536629484 .noteText,#mermaid-1610536629484 .noteText &gt; tspan{fill:black;stroke:none;}#mermaid-1610536629484 .activation0{fill:#f4f4f4;stroke:#666;}#mermaid-1610536629484 .activation1{fill:#f4f4f4;stroke:#666;}#mermaid-1610536629484 .activation2{fill:#f4f4f4;stroke:#666;}#mermaid-1610536629484:root{--mermaid-font-family:"trebuchet ms",verdana,arial;}#mermaid-1610536629484 sequence{fill:apa;}</style><g/><g><line id="actor50" x1="75" y1="5" x2="75" y2="1475" class="actor-line" stroke-width="0.5px" stroke="#999"/><rect x="0" y="0" fill="#eaeaea" stroke="#666" width="150" height="65" rx="3" ry="3" class="actor"/><text x="75" y="32.5" dominant-baseline="central" alignment-baseline="central" class="actor" style="text-anchor: middle; font-size: 14px; font-weight: 400; font-family: Open-Sans, sans-serif;"><tspan x="75" dy="0">Program</tspan></text></g><g><line id="actor51" x1="275" y1="5" x2="275" y2="1475" class="actor-line" stroke-width="0.5px" stroke="#999"/><rect x="200" y="0" fill="#eaeaea" stroke="#666" width="150" height="65" rx="3" ry="3" class="actor"/><text x="275" y="32.5" dominant-baseline="central" alignment-baseline="central" class="actor" style="text-anchor: middle; font-size: 14px; font-weight: 400; font-family: Open-Sans, sans-serif;"><tspan x="275" dy="0">GroupSettings</tspan></text></g><g><line id="actor52" x1="505" y1="5" x2="505" y2="1475" class="actor-line" stroke-width="0.5px" stroke="#999"/><rect x="430" y="0" fill="#eaeaea" stroke="#666" width="150" height="65" rx="3" ry="3" class="actor"/><text x="505" y="32.5" dominant-baseline="central" alignment-baseline="central" class="actor" style="text-anchor: middle; font-size: 14px; font-weight: 400; font-family: Open-Sans, sans-serif;"><tspan x="505" dy="0">GroupManager</tspan></text></g><g><line id="actor53" x1="705" y1="5" x2="705" y2="1475" class="actor-line" stroke-width="0.5px" stroke="#999"/><rect x="630" y="0" fill="#eaeaea" stroke="#666" width="150" height="65" rx="3" ry="3" class="actor"/><text x="705" y="32.5" dominant-baseline="central" alignment-baseline="central" class="actor" style="text-anchor: middle; font-size: 14px; font-weight: 400; font-family: Open-Sans, sans-serif;"><tspan x="705" dy="0">InputFileManager</tspan></text></g><g><line id="actor54" x1="905" y1="5" x2="905" y2="1475" class="actor-line" stroke-width="0.5px" stroke="#999"/><rect x="830" y="0" fill="#eaeaea" stroke="#666" width="150" height="65" rx="3" ry="3" class="actor"/><text x="905" y="32.5" dominant-baseline="central" alignment-baseline="central" class="actor" style="text-anchor: middle; font-size: 14px; font-weight: 400; font-family: Open-Sans, sans-serif;"><tspan x="905" dy="0">DriverlessInputFile</tspan></text></g><defs><marker id="arrowhead" refX="5" refY="2" markerWidth="6" markerHeight="4" orient="auto"><path d="M 0,0 V 4 L6,2 Z"/></marker></defs><defs><marker id="crosshead" markerWidth="15" markerHeight="8" orient="auto" refX="16" refY="4"><path fill="black" stroke="#000000" stroke-width="1px" d="M 9,2 V 6 L16,4 Z" style="stroke-dasharray: 0, 0;"/><path fill="none" stroke="#000000" stroke-width="1px" d="M 0,1 L 6,7 M 6,1 L 0,7" style="stroke-dasharray: 0, 0;"/></marker></defs><defs><marker id="sequencenumber" refX="15" refY="15" markerWidth="60" markerHeight="40" orient="auto"><circle cx="15" cy="15" r="6"/></marker></defs><text x="175" y="80" text-anchor="middle" dominant-baseline="middle" alignment-baseline="middle" class="messageText" dy="1em" style="font-family: &quot;trebuchet ms&quot;, verdana, arial; font-size: 16px; font-weight: 400;">Create new</text><line x1="75" y1="113" x2="275" y2="113" class="messageLine0" stroke-width="2" stroke="none" marker-end="url(#arrowhead)" style="fill: none;"/><g><rect x="70" y="107" fill="#EDF2AE" stroke="#666" width="10" height="18" rx="0" ry="0" class="activation0"/></g><g><rect x="270" y="113" fill="#EDF2AE" stroke="#666" width="10" height="1277" rx="0" ry="0" class="activation0"/></g><text x="393" y="128" text-anchor="middle" dominant-baseline="middle" alignment-baseline="middle" class="messageText" dy="1em" style="font-family: &quot;trebuchet ms&quot;, verdana, arial; font-size: 16px; font-weight: 400;">Get groups count</text><line x1="280" y1="161" x2="505" y2="161" class="messageLine0" stroke-width="2" stroke="none" marker-end="url(#arrowhead)" style="fill: none;"/><g><rect x="500" y="163" fill="#EDF2AE" stroke="#666" width="10" height="46" rx="0" ry="0" class="activation0"/></g><text x="390" y="176" text-anchor="middle" dominant-baseline="middle" alignment-baseline="middle" class="messageText" dy="1em" style="font-family: &quot;trebuchet ms&quot;, verdana, arial; font-size: 16px; font-weight: 400;">Return groups count</text><line x1="500" y1="209" x2="280" y2="209" class="messageLine1" stroke-width="2" stroke="none" marker-end="url(#arrowhead)" style="stroke-dasharray: 3, 3; fill: none;"/><text x="393" y="314" text-anchor="middle" dominant-baseline="middle" alignment-baseline="middle" class="messageText" dy="1em" style="font-family: &quot;trebuchet ms&quot;, verdana, arial; font-size: 16px; font-weight: 400;">Get groups</text><line x1="280" y1="347" x2="505" y2="347" class="messageLine0" stroke-width="2" stroke="none" marker-end="url(#arrowhead)" style="fill: none;"/><g><rect x="500" y="349" fill="#EDF2AE" stroke="#666" width="10" height="46" rx="0" ry="0" class="activation0"/></g><text x="390" y="362" text-anchor="middle" dominant-baseline="middle" alignment-baseline="middle" class="messageText" dy="1em" style="font-family: &quot;trebuchet ms&quot;, verdana, arial; font-size: 16px; font-weight: 400;">Return groups</text><line x1="500" y1="395" x2="280" y2="395" class="messageLine1" stroke-width="2" stroke="none" marker-end="url(#arrowhead)" style="stroke-dasharray: 3, 3; fill: none;"/><g><rect x="132" y="405" fill="#EDF2AE" stroke="#666" width="286" height="37" rx="0" ry="0" class="note"/><text x="275" y="410" text-anchor="middle" dominant-baseline="middle" alignment-baseline="middle" class="noteText" dy="1em" style="font-family: &quot;trebuchet ms&quot;, verdana, arial; font-size: 14px; font-weight: 400;"><tspan x="275">Set active group name to first group name</tspan></text></g><g><line x1="122" y1="264" x2="520" y2="264" class="loopLine"/><line x1="520" y1="264" x2="520" y2="452" class="loopLine"/><line x1="122" y1="452" x2="520" y2="452" class="loopLine"/><line x1="122" y1="264" x2="122" y2="452" class="loopLine"/><polygon points="122,264 172,264 172,277 163.6,284 122,284" class="labelBox"/><text x="147" y="277" text-anchor="middle" dominant-baseline="middle" alignment-baseline="middle" class="labelText" style="font-family: &quot;trebuchet ms&quot;, verdana, arial; font-size: 16px; font-weight: 400;">opt</text><text x="346" y="282" text-anchor="middle" class="loopText" style="font-family: &quot;trebuchet ms&quot;, verdana, arial; font-size: 16px; font-weight: 400;"><tspan x="346">[active group name is empty]</tspan></text></g><text x="393" y="467" text-anchor="middle" dominant-baseline="middle" alignment-baseline="middle" class="messageText" dy="1em" style="font-family: &quot;trebuchet ms&quot;, verdana, arial; font-size: 16px; font-weight: 400;">Get active group</text><line x1="280" y1="500" x2="505" y2="500" class="messageLine0" stroke-width="2" stroke="none" marker-end="url(#arrowhead)" style="fill: none;"/><g><rect x="500" y="502" fill="#EDF2AE" stroke="#666" width="10" height="46" rx="0" ry="0" class="activation0"/></g><text x="390" y="515" text-anchor="middle" dominant-baseline="middle" alignment-baseline="middle" class="messageText" dy="1em" style="font-family: &quot;trebuchet ms&quot;, verdana, arial; font-size: 16px; font-weight: 400;">Return active group</text><line x1="500" y1="548" x2="280" y2="548" class="messageLine1" stroke-width="2" stroke="none" marker-end="url(#arrowhead)" style="stroke-dasharray: 3, 3; fill: none;"/><text x="280" y="608" text-anchor="middle" dominant-baseline="middle" alignment-baseline="middle" class="messageText" dy="1em" style="font-family: &quot;trebuchet ms&quot;, verdana, arial; font-size: 16px; font-weight: 400;">destroy all active channel selectable attributes</text><path d="M 280,641 C 340,631 340,671 280,661" class="messageLine0" stroke-width="2" stroke="none" marker-end="url(#arrowhead)" style="fill: none;"/><g><rect x="275" y="665" fill="#EDF2AE" stroke="#666" width="10" height="18" rx="0" ry="0" class="activation1"/></g><g><line x1="100" y1="558" x2="460" y2="558" class="loopLine"/><line x1="460" y1="558" x2="460" y2="711" class="loopLine"/><line x1="100" y1="711" x2="460" y2="711" class="loopLine"/><line x1="100" y1="558" x2="100" y2="711" class="loopLine"/><polygon points="100,558 150,558 150,571 141.6,578 100,578" class="labelBox"/><text x="125" y="571" text-anchor="middle" dominant-baseline="middle" alignment-baseline="middle" class="labelText" style="font-family: &quot;trebuchet ms&quot;, verdana, arial; font-size: 16px; font-weight: 400;">opt</text><text x="305" y="576" text-anchor="middle" class="loopText" style="font-family: &quot;trebuchet ms&quot;, verdana, arial; font-size: 16px; font-weight: 400;"><tspan x="305">[active group is driverless]</tspan></text></g><text x="280" y="726" text-anchor="middle" dominant-baseline="middle" alignment-baseline="middle" class="messageText" dy="1em" style="font-family: &quot;trebuchet ms&quot;, verdana, arial; font-size: 16px; font-weight: 400;">Initialize active channel selectable attributes</text><path d="M 280,759 C 340,749 340,789 280,779" class="messageLine0" stroke-width="2" stroke="none" marker-end="url(#arrowhead)" style="fill: none;"/><g><rect x="275" y="791" fill="#EDF2AE" stroke="#666" width="10" height="589" rx="0" ry="0" class="activation1"/></g><text x="395" y="804" text-anchor="middle" dominant-baseline="middle" alignment-baseline="middle" class="messageText" dy="1em" style="font-family: &quot;trebuchet ms&quot;, verdana, arial; font-size: 16px; font-weight: 400;">Get active group</text><line x1="285" y1="837" x2="505" y2="837" class="messageLine0" stroke-width="2" stroke="none" marker-end="url(#arrowhead)" style="fill: none;"/><g><rect x="500" y="839" fill="#EDF2AE" stroke="#666" width="10" height="46" rx="0" ry="0" class="activation0"/></g><text x="393" y="852" text-anchor="middle" dominant-baseline="middle" alignment-baseline="middle" class="messageText" dy="1em" style="font-family: &quot;trebuchet ms&quot;, verdana, arial; font-size: 16px; font-weight: 400;">Return active group</text><line x1="500" y1="885" x2="285" y2="885" class="messageLine1" stroke-width="2" stroke="none" marker-end="url(#arrowhead)" style="stroke-dasharray: 3, 3; fill: none;"/><text x="495" y="945" text-anchor="middle" dominant-baseline="middle" alignment-baseline="middle" class="messageText" dy="1em" style="font-family: &quot;trebuchet ms&quot;, verdana, arial; font-size: 16px; font-weight: 400;">Get selected driverless input file</text><line x1="285" y1="978" x2="705" y2="978" class="messageLine0" stroke-width="2" stroke="none" marker-end="url(#arrowhead)" style="fill: none;"/><g><rect x="700" y="980" fill="#EDF2AE" stroke="#666" width="10" height="46" rx="0" ry="0" class="activation0"/></g><text x="493" y="993" text-anchor="middle" dominant-baseline="middle" alignment-baseline="middle" class="messageText" dy="1em" style="font-family: &quot;trebuchet ms&quot;, verdana, arial; font-size: 16px; font-weight: 400;">Return selected driverless input file</text><line x1="700" y1="1026" x2="285" y2="1026" class="messageLine1" stroke-width="2" stroke="none" marker-end="url(#arrowhead)" style="stroke-dasharray: 3, 3; fill: none;"/><text x="595" y="1086" text-anchor="middle" dominant-baseline="middle" alignment-baseline="middle" class="messageText" dy="1em" style="font-family: &quot;trebuchet ms&quot;, verdana, arial; font-size: 16px; font-weight: 400;">Get channels</text><line x1="285" y1="1119" x2="905" y2="1119" class="messageLine0" stroke-width="2" stroke="none" marker-end="url(#arrowhead)" style="fill: none;"/><g><rect x="900" y="1121" fill="#EDF2AE" stroke="#666" width="10" height="46" rx="0" ry="0" class="activation0"/></g><text x="593" y="1134" text-anchor="middle" dominant-baseline="middle" alignment-baseline="middle" class="messageText" dy="1em" style="font-family: &quot;trebuchet ms&quot;, verdana, arial; font-size: 16px; font-weight: 400;">Return channels</text><line x1="900" y1="1167" x2="285" y2="1167" class="messageLine1" stroke-width="2" stroke="none" marker-end="url(#arrowhead)" style="stroke-dasharray: 3, 3; fill: none;"/><g><rect x="200" y="1303" fill="#EDF2AE" stroke="#666" width="150" height="37" rx="0" ry="0" class="note"/><text x="275" y="1308" text-anchor="middle" dominant-baseline="middle" alignment-baseline="middle" class="noteText" dy="1em" style="font-family: &quot;trebuchet ms&quot;, verdana, arial; font-size: 14px; font-weight: 400;"><tspan x="275">Create check box</tspan></text></g><g><line x1="190" y1="1240" x2="360" y2="1240" class="loopLine"/><line x1="360" y1="1240" x2="360" y2="1350" class="loopLine"/><line x1="190" y1="1350" x2="360" y2="1350" class="loopLine"/><line x1="190" y1="1240" x2="190" y2="1350" class="loopLine"/><polygon points="190,1240 240,1240 240,1253 231.6,1260 190,1260" class="labelBox"/><text x="215" y="1253" text-anchor="middle" dominant-baseline="middle" alignment-baseline="middle" class="labelText" style="font-family: &quot;trebuchet ms&quot;, verdana, arial; font-size: 16px; font-weight: 400;">loop</text><text x="300" y="1258" text-anchor="middle" class="loopText" style="font-family: &quot;trebuchet ms&quot;, verdana, arial; font-size: 16px; font-weight: 400;"><tspan x="300">[in</tspan></text><text x="300" y="1276" text-anchor="middle" class="loopText" style="font-family: &quot;trebuchet ms&quot;, verdana, arial; font-size: 16px; font-weight: 400;"><tspan x="300">channels]</tspan></text></g><g><line x1="180" y1="1177" x2="370" y2="1177" class="loopLine"/><line x1="370" y1="1177" x2="370" y2="1360" class="loopLine"/><line x1="180" y1="1360" x2="370" y2="1360" class="loopLine"/><line x1="180" y1="1177" x2="180" y2="1360" class="loopLine"/><polygon points="180,1177 230,1177 230,1190 221.6,1197 180,1197" class="labelBox"/><text x="205" y="1190" text-anchor="middle" dominant-baseline="middle" alignment-baseline="middle" class="labelText" style="font-family: &quot;trebuchet ms&quot;, verdana, arial; font-size: 16px; font-weight: 400;">opt</text><text x="300" y="1195" text-anchor="middle" class="loopText" style="font-family: &quot;trebuchet ms&quot;, verdana, arial; font-size: 16px; font-weight: 400;"><tspan x="300">[channel is</tspan></text><text x="300" y="1213" text-anchor="middle" class="loopText" style="font-family: &quot;trebuchet ms&quot;, verdana, arial; font-size: 16px; font-weight: 400;"><tspan x="300">not null]</tspan></text></g><g><line x1="170" y1="1036" x2="920" y2="1036" class="loopLine"/><line x1="920" y1="1036" x2="920" y2="1370" class="loopLine"/><line x1="170" y1="1370" x2="920" y2="1370" class="loopLine"/><line x1="170" y1="1036" x2="170" y2="1370" class="loopLine"/><polygon points="170,1036 220,1036 220,1049 211.6,1056 170,1056" class="labelBox"/><text x="195" y="1049" text-anchor="middle" dominant-baseline="middle" alignment-baseline="middle" class="labelText" style="font-family: &quot;trebuchet ms&quot;, verdana, arial; font-size: 16px; font-weight: 400;">opt</text><text x="570" y="1054" text-anchor="middle" class="loopText" style="font-family: &quot;trebuchet ms&quot;, verdana, arial; font-size: 16px; font-weight: 400;"><tspan x="570">[selected driverless input file is not null]</tspan></text></g><g><line x1="160" y1="895" x2="930" y2="895" class="loopLine"/><line x1="930" y1="895" x2="930" y2="1380" class="loopLine"/><line x1="160" y1="1380" x2="930" y2="1380" class="loopLine"/><line x1="160" y1="895" x2="160" y2="1380" class="loopLine"/><polygon points="160,895 210,895 210,908 201.6,915 160,915" class="labelBox"/><text x="185" y="908" text-anchor="middle" dominant-baseline="middle" alignment-baseline="middle" class="labelText" style="font-family: &quot;trebuchet ms&quot;, verdana, arial; font-size: 16px; font-weight: 400;">opt</text><text x="570" y="913" text-anchor="middle" class="loopText" style="font-family: &quot;trebuchet ms&quot;, verdana, arial; font-size: 16px; font-weight: 400;"><tspan x="570">[active group is driverless]</tspan></text></g><g><line x1="90" y1="219" x2="940" y2="219" class="loopLine"/><line x1="940" y1="219" x2="940" y2="1390" class="loopLine"/><line x1="90" y1="1390" x2="940" y2="1390" class="loopLine"/><line x1="90" y1="219" x2="90" y2="1390" class="loopLine"/><polygon points="90,219 140,219 140,232 131.6,239 90,239" class="labelBox"/><text x="115" y="232" text-anchor="middle" dominant-baseline="middle" alignment-baseline="middle" class="labelText" style="font-family: &quot;trebuchet ms&quot;, verdana, arial; font-size: 16px; font-weight: 400;">opt</text><text x="540" y="237" text-anchor="middle" class="loopText" style="font-family: &quot;trebuchet ms&quot;, verdana, arial; font-size: 16px; font-weight: 400;"><tspan x="540">[groups has items]</tspan></text></g><g><rect x="0" y="1410" fill="#eaeaea" stroke="#666" width="150" height="65" rx="3" ry="3" class="actor"/><text x="75" y="1442.5" dominant-baseline="central" alignment-baseline="central" class="actor" style="text-anchor: middle; font-size: 14px; font-weight: 400; font-family: Open-Sans, sans-serif;"><tspan x="75" dy="0">Program</tspan></text></g><g><rect x="200" y="1410" fill="#eaeaea" stroke="#666" width="150" height="65" rx="3" ry="3" class="actor"/><text x="275" y="1442.5" dominant-baseline="central" alignment-baseline="central" class="actor" style="text-anchor: middle; font-size: 14px; font-weight: 400; font-family: Open-Sans, sans-serif;"><tspan x="275" dy="0">GroupSettings</tspan></text></g><g><rect x="430" y="1410" fill="#eaeaea" stroke="#666" width="150" height="65" rx="3" ry="3" class="actor"/><text x="505" y="1442.5" dominant-baseline="central" alignment-baseline="central" class="actor" style="text-anchor: middle; font-size: 14px; font-weight: 400; font-family: Open-Sans, sans-serif;"><tspan x="505" dy="0">GroupManager</tspan></text></g><g><rect x="630" y="1410" fill="#eaeaea" stroke="#666" width="150" height="65" rx="3" ry="3" class="actor"/><text x="705" y="1442.5" dominant-baseline="central" alignment-baseline="central" class="actor" style="text-anchor: middle; font-size: 14px; font-weight: 400; font-family: Open-Sans, sans-serif;"><tspan x="705" dy="0">InputFileManager</tspan></text></g><g><rect x="830" y="1410" fill="#eaeaea" stroke="#666" width="150" height="65" rx="3" ry="3" class="actor"/><text x="905" y="1442.5" dominant-baseline="central" alignment-baseline="central" class="actor" style="text-anchor: middle; font-size: 14px; font-weight: 400; font-family: Open-Sans, sans-serif;"><tspan x="905" dy="0">DriverlessInputFile</tspan></text></g></svg>